<svg xmlns="http://www.w3.org/2000/svg" xmlns:xlink="http://www.w3.org/1999/xlink" viewBox="0 0 2221 1080"><defs><radialGradient id="a" cx="1643" cy="228" r="60" gradientUnits="userSpaceOnUse"><stop offset="0.53" stop-color="#cf1b00"/><stop offset="1" stop-color="#fff"/></radialGradient><radialGradient id="b" cx="1792" cy="225" r="60" xlink:href="#a"/><radialGradient id="c" cx="1941" cy="225" r="60" xlink:href="#a"/><radialGradient id="d" cx="2090" r="60" xlink:href="#a"/><radialGradient id="e" cx="1792" cy="374" r="60" xlink:href="#a"/><radialGradient id="f" cx="1792" cy="523" r="60" xlink:href="#a"/><radialGradient id="g" cx="1792" cy="675" r="60" xlink:href="#a"/><radialGradient id="h" cx="1792" cy="827" r="60" xlink:href="#a"/><radialGradient id="i" cx="1494" cy="225" r="60" xlink:href="#a"/><radialGradient id="j" cx="750" cy="377" r="60" gradientUnits="userSpaceOnUse"><stop offset="0.53" stop-color="#2471c2"/><stop offset="1" stop-color="#fff"/></radialGradient><radialGradient id="k" cx="749" cy="526" r="60" xlink:href="#j"/><radialGradient id="l" cx="749" cy="675" r="60" xlink:href="#j"/><radialGradient id="m" cy="827" r="60" xlink:href="#j"/><radialGradient id="n" cx="1049" cy="228" r="60" xlink:href="#j"/><radialGradient id="o" cx="1049" r="60" xlink:href="#j"/><radialGradient id="p" cx="1049" cy="526" r="60" xlink:href="#j"/><radialGradient id="q" cx="1049" cy="675" r="60" xlink:href="#j"/><radialGradient id="r" cx="1049" cy="824" r="60" xlink:href="#j"/><radialGradient id="s" cx="898" cy="824" r="60" xlink:href="#j"/><radialGradient id="t" cx="1345" cy="225" r="60" xlink:href="#j"/><radialGradient id="u" cx="1345" r="60" xlink:href="#j"/><radialGradient id="v" cx="1345" cy="526" r="60" xlink:href="#j"/><radialGradient id="w" cx="1345" cy="675" r="60" xlink:href="#j"/><radialGradient id="x" cx="1345" cy="824" r="60" xlink:href="#j"/><radialGradient id="y" cx="1202" cy="822" r="60" xlink:href="#j"/><radialGradient id="z" cx="749" cy="225" r="60" xlink:href="#j"/><radialGradient id="aa" cx="152" cy="526" r="60" gradientUnits="userSpaceOnUse"><stop offset="0.53" stop-color="#29bf35"/><stop offset="1" stop-color="#fff"/></radialGradient><radialGradient id="ab" cy="228" r="60" xlink:href="#aa"/><radialGradient id="ac" cy="377" r="60" xlink:href="#aa"/><radialGradient id="ad" cy="675" r="60" xlink:href="#aa"/><radialGradient id="ae" cy="824" r="60" xlink:href="#aa"/><radialGradient id="af" cx="302" cy="228" r="60" xlink:href="#aa"/><radialGradient id="ag" cx="302" r="60" xlink:href="#aa"/><radialGradient id="ah" cx="451" cy="228" r="60" xlink:href="#aa"/><radialGradient id="ai" cx="599" cy="228" r="60" xlink:href="#aa"/><radialGradient id="aj" cx="599" cy="377" r="60" xlink:href="#aa"/><radialGradient id="ak" cx="599" r="60" xlink:href="#aa"/><radialGradient id="al" cx="453" r="60" xlink:href="#aa"/></defs><title>Монтажная область 1</title><g style="opacity:0.7"><circle cx="1643" cy="228" r="60" style="fill:url(#a)"/></g><g style="opacity:0.7"><circle cx="1792" cy="225" r="60" style="fill:url(#b)"/></g><g style="opacity:0.7"><circle cx="1941" cy="225" r="60" style="fill:url(#c)"/></g><g style="opacity:0.7"><circle cx="2090" cy="228" r="60" style="fill:url(#d)"/></g><g style="opacity:0.7"><circle cx="1792" cy="374" r="60" style="fill:url(#e)"/></g><g style="opacity:0.7"><circle cx="1792" cy="523" r="60" style="fill:url(#f)"/></g><g style="opacity:0.7"><circle cx="1792" cy="675" r="60" style="fill:url(#g)"/></g><g style="opacity:0.7"><circle cx="1792" cy="827" r="60" style="fill:url(#h)"/></g><g style="opacity:0.7"><circle cx="1494" cy="225" r="60" style="fill:url(#i)"/></g><g style="opacity:0.7"><circle cx="750" cy="377" r="60" style="fill:url(#j)"/></g><g style="opacity:0.7"><circle cx="749" cy="526" r="60" style="fill:url(#k)"/></g><g style="opacity:0.7"><circle cx="749" cy="675" r="60" style="fill:url(#l)"/></g><g style="opacity:0.7"><circle cx="750" cy="827" r="60" style="fill:url(#m)"/></g><g style="opacity:0.7"><circle cx="1049" cy="228" r="60" style="fill:url(#n)"/></g><g style="opacity:0.7"><circle cx="1049" cy="377" r="60" style="fill:url(#o)"/></g><g style="opacity:0.7"><circle cx="1049" cy="526" r="60" style="fill:url(#p)"/></g><g style="opacity:0.7"><circle cx="1049" cy="675" r="60" style="fill:url(#q)"/></g><g style="opacity:0.7"><circle cx="1049" cy="824" r="60" style="fill:url(#r)"/></g><g style="opacity:0.7"><circle cx="898" cy="824" r="60" style="fill:url(#s)"/></g><g style="opacity:0.7"><circle cx="1345" cy="225" r="60" style="fill:url(#t)"/></g><g style="opacity:0.7"><circle cx="1345" cy="377" r="60" style="fill:url(#u)"/></g><g style="opacity:0.7"><circle cx="1345" cy="526" r="60" style="fill:url(#v)"/></g><g style="opacity:0.7"><circle cx="1345" cy="675" r="60" style="fill:url(#w)"/></g><g style="opacity:0.7"><circle cx="1345" cy="824" r="60" style="fill:url(#x)"/></g><g style="opacity:0.7"><circle cx="1202" cy="822" r="60" style="fill:url(#y)"/></g><g style="opacity:0.7"><circle cx="749" cy="225" r="60" style="fill:url(#z)"/></g><g style="opacity:0.7"><circle cx="152" cy="526" r="60" style="fill:url(#aa)"/></g><g style="opacity:0.7"><circle cx="152" cy="228" r="60" style="fill:url(#ab)"/></g><g style="opacity:0.7"><circle cx="152" cy="377" r="60" style="fill:url(#ac)"/></g><g style="opacity:0.7"><circle cx="152" cy="675" r="60" style="fill:url(#ad)"/></g><g style="opacity:0.7"><circle cx="152" cy="824" r="60" style="fill:url(#ae)"/></g><g style="opacity:0.7"><circle cx="302" cy="228" r="60" style="fill:url(#af)"/></g><g style="opacity:0.7"><circle cx="302" cy="526" r="60" style="fill:url(#ag)"/></g><g style="opacity:0.7"><circle cx="451" cy="228" r="60" style="fill:url(#ah)"/></g><g style="opacity:0.7"><circle cx="599" cy="228" r="60" style="fill:url(#ai)"/></g><g style="opacity:0.7"><circle cx="599" cy="377" r="60" style="fill:url(#aj)"/></g><g style="opacity:0.7"><circle cx="599" cy="526" r="60" style="fill:url(#ak)"/></g><g style="opacity:0.7"><circle cx="453" cy="526" r="60" style="fill:url(#al)"/></g><g style="opacity:0.7"><circle cx="152" cy="228" r="60" style="fill:url(#ab)"/></g><circle cx="190" cy="377" r="52" style="fill:#29bf35"/><circle cx="190" cy="526" r="52" style="fill:#29bf35"/><circle cx="190" cy="675" r="52" style="fill:#29bf35"/><circle cx="190" cy="824" r="52" style="fill:#29bf35"/><circle cx="339" cy="228" r="52" style="fill:#29bf35"/><circle cx="488" cy="228" r="52" style="fill:#29bf35"/><circle cx="637" cy="228" r="52" style="fill:#29bf35"/><circle cx="637" cy="377" r="52" style="fill:#29bf35"/><circle cx="637" cy="526" r="52" style="fill:#29bf35"/><circle cx="488" cy="526" r="52" style="fill:#29bf35"/><circle cx="339" cy="526" r="52" style="fill:#29bf35"/><circle cx="786" cy="824" r="52" style="fill:#2471c2"/><circle cx="935" cy="824" r="52" style="fill:#2471c2"/><circle cx="1084" cy="824" r="52" style="fill:#2471c2"/><circle cx="1233" cy="824" r="52" style="fill:#2471c2"/><circle cx="1382" cy="824" r="52" style="fill:#2471c2"/><circle cx="1382" cy="675" r="52" style="fill:#2471c2"/><circle cx="1382" cy="526" r="52" style="fill:#2471c2"/><circle cx="1382" cy="377" r="52" style="fill:#2471c2"/><circle cx="1382" cy="228" r="52" style="fill:#2471c2"/><circle cx="1084" cy="675" r="52" style="fill:#2471c2"/><circle cx="1084" cy="526" r="52" style="fill:#2471c2"/><circle cx="1084" cy="377" r="52" style="fill:#2471c2"/><circle cx="1084" cy="228" r="52" style="fill:#2471c2"/><circle cx="786" cy="675" r="52" style="fill:#2471c2"/><circle cx="786" cy="526" r="52" style="fill:#2471c2"/><circle cx="786" cy="377" r="52" style="fill:#2471c2"/><circle cx="786" cy="228" r="52" style="fill:#2471c2"/><circle cx="1531" cy="228" r="52" style="fill:#cf1b00"/><circle cx="1680" cy="228" r="52" style="fill:#cf1b00"/><circle cx="1829" cy="228" r="52" style="fill:#cf1b00"/><circle cx="1978" cy="228" r="52" style="fill:#cf1b00"/><circle cx="2127" cy="228" r="52" style="fill:#cf1b00"/><circle cx="1829" cy="377" r="52" style="fill:#cf1b00"/><circle cx="1829" cy="526" r="52" style="fill:#cf1b00"/><circle cx="1829" cy="675" r="52" style="fill:#cf1b00"/><circle cx="1829" cy="824" r="52" style="fill:#cf1b00"/><circle cx="190" cy="228" r="52" style="fill:#29bf35"/></svg>